<?xml version="1.0" encoding="UTF-8"?>
<!DOCTYPE svg PUBLIC "-//W3C//DTD SVG 1.1//EN" "http://www.w3.org/Graphics/SVG/1.1/DTD/svg11.dtd">
<svg xmlns="http://www.w3.org/2000/svg" version="1.1" viewBox="0 0 81 81" stroke="none">
	<rect width="100%" height="100%" fill="#ffffff"/>
	<path d="M20,20h7v1h-7z M31,20h3v1h-3z M35,20h1v2h-1z M38,20h2v1h-2z M41,20h3v1h-3z M47,20h1v2h-1z M49,20h1v1h-1z M51,20h1v1h-1z M54,20h7v1h-7z M20,21h1v6h-1z M26,21h1v6h-1z M32,21h3v1h-3z M37,21h1v3h-1z M40,21h1v9h-1z M43,21h2v1h-2z M50,21h1v6h-1z M54,21h1v6h-1z M60,21h1v6h-1z M22,22h3v3h-3z M30,22h2v1h-2z M33,22h1v1h-1z M36,22h1v2h-1z M39,22h1v2h-1z M41,22h2v2h-2z M43,22h1v1h-1z M46,22h1v1h-1z M51,22h2v2h-2z M56,22h3v3h-3z M29,23h1v3h-1z M30,23h1v1h-1z M32,23h1v5h-1z M34,23h2v1h-2z M44,23h1v4h-1z M45,23h1v1h-1z M47,23h3v1h-3z M35,24h1v2h-1z M43,24h1v1h-1z M47,24h1v2h-1z M49,24h1v1h-1z M52,24h1v1h-1z M28,25h1v2h-1z M33,25h1v1h-1z M36,25h1v3h-1z M38,25h1v3h-1z M39,25h1v1h-1z M41,25h1v1h-1z M51,25h1v1h-1z M21,26h5v1h-5z M30,26h1v2h-1z M34,26h1v1h-1z M42,26h1v1h-1z M46,26h1v1h-1z M48,26h1v1h-1z M52,26h1v2h-1z M55,26h5v1h-5z M29,27h1v1h-1z M35,27h1v2h-1z M37,27h1v1h-1z M39,27h1v2h-1z M41,27h1v6h-1z M43,27h1v2h-1z M49,27h1v1h-1z M20,28h1v2h-1z M23,28h1v1h-1z M25,28h1v5h-1z M26,28h1v1h-1z M28,28h1v1h-1z M31,28h1v3h-1z M34,28h1v8h-1z M44,28h2v2h-2z M46,28h1v1h-1z M48,28h1v1h-1z M53,28h1v1h-1z M55,28h1v2h-1z M21,29h2v1h-2z M27,29h1v7h-1z M30,29h1v2h-1z M37,29h2v1h-2z M49,29h1v2h-1z M52,29h1v1h-1z M54,29h1v4h-1z M57,29h2v2h-2z M60,29h1v1h-1z M24,30h1v2h-1z M26,30h1v1h-1z M28,30h1v3h-1z M36,30h2v1h-2z M39,30h1v1h-1z M42,30h1v1h-1z M45,30h1v3h-1z M46,30h1v1h-1z M50,30h2v1h-2z M53,30h1v4h-1z M20,31h2v1h-2z M29,31h1v1h-1z M32,31h2v1h-2z M36,31h1v1h-1z M43,31h2v1h-2z M47,31h2v2h-2z M55,31h1v1h-1z M58,31h1v1h-1z M21,32h2v1h-2z M26,32h1v1h-1z M32,32h1v1h-1z M37,32h1v7h-1z M38,32h3v1h-3z M42,32h1v1h-1z M46,32h1v2h-1z M49,32h1v2h-1z M51,32h2v1h-2z M57,32h1v1h-1z M59,32h2v1h-2z M22,33h1v7h-1z M30,33h2v1h-2z M36,33h1v2h-1z M40,33h1v1h-1z M43,33h1v3h-1z M47,33h1v2h-1z M55,33h1v5h-1z M58,33h1v1h-1z M21,34h1v1h-1z M23,34h1v2h-1z M26,34h1v1h-1z M32,34h2v2h-2z M35,34h1v1h-1z M38,34h2v1h-2z M45,34h1v2h-1z M48,34h1v2h-1z M50,34h1v1h-1z M52,34h1v1h-1z M54,34h1v2h-1z M56,34h1v1h-1z M60,34h1v1h-1z M25,35h1v1h-1z M29,35h1v2h-1z M31,35h1v2h-1z M38,35h1v1h-1z M40,35h2v2h-2z M49,35h1v2h-1z M21,36h1v3h-1z M24,36h1v2h-1z M26,36h1v1h-1z M33,36h1v3h-1z M35,36h2v1h-2z M44,36h1v4h-1z M46,36h2v1h-2z M51,36h2v1h-2z M28,37h1v3h-1z M32,37h1v1h-1z M41,37h1v1h-1z M43,37h1v1h-1z M46,37h1v1h-1z M48,37h1v2h-1z M50,37h1v5h-1z M54,37h1v5h-1z M58,37h3v2h-3z M20,38h1v1h-1z M23,38h1v3h-1z M25,38h3v1h-3z M31,38h1v1h-1z M34,38h3v1h-3z M40,38h1v2h-1z M42,38h1v1h-1z M45,38h1v2h-1z M52,38h2v1h-2z M56,38h2v1h-2z M24,39h1v5h-1z M27,39h1v6h-1z M30,39h1v2h-1z M32,39h1v2h-1z M34,39h1v2h-1z M39,39h1v1h-1z M41,39h1v1h-1z M43,39h1v2h-1z M49,39h1v2h-1z M51,39h1v1h-1z M55,39h1v2h-1z M60,39h1v1h-1z M21,40h1v4h-1z M26,40h1v1h-1z M29,40h1v1h-1z M33,40h1v1h-1z M35,40h3v1h-3z M42,40h1v4h-1z M46,40h3v1h-3z M57,40h3v1h-3z M25,41h1v1h-1z M28,41h1v2h-1z M31,41h1v1h-1z M36,41h2v1h-2z M45,41h1v1h-1z M48,41h1v1h-1z M57,41h1v1h-1z M59,41h1v3h-1z M60,41h1v1h-1z M20,42h1v4h-1z M23,42h1v1h-1z M26,42h1v1h-1z M29,42h1v2h-1z M33,42h3v1h-3z M37,42h3v1h-3z M44,42h1v10h-1z M49,42h1v1h-1z M51,42h1v2h-1z M53,42h1v2h-1z M55,42h1v1h-1z M22,43h1v1h-1z M25,43h1v1h-1z M30,43h1v1h-1z M32,43h1v3h-1z M33,43h1v1h-1z M39,43h3v1h-3z M43,43h1v2h-1z M45,43h1v3h-1z M50,43h1v1h-1z M52,43h1v2h-1z M58,43h1v1h-1z M26,44h1v1h-1z M28,44h1v1h-1z M31,44h1v1h-1z M35,44h3v1h-3z M41,44h1v1h-1z M48,44h2v1h-2z M54,44h2v1h-2z M21,45h5v1h-5z M29,45h1v3h-1z M33,45h1v2h-1z M37,45h1v5h-1z M39,45h1v1h-1z M42,45h1v2h-1z M46,45h1v1h-1z M49,45h1v1h-1z M51,45h1v1h-1z M53,45h1v2h-1z M55,45h1v5h-1z M57,45h1v1h-1z M59,45h1v1h-1z M21,46h1v3h-1z M26,46h3v1h-3z M31,46h1v2h-1z M34,46h2v1h-2z M40,46h1v1h-1z M43,46h1v1h-1z M52,46h1v2h-1z M54,46h1v1h-1z M60,46h1v1h-1z M20,47h1v2h-1z M22,47h4v1h-4z M30,47h1v1h-1z M32,47h1v1h-1z M35,47h1v2h-1z M38,47h1v3h-1z M41,47h1v3h-1z M45,47h3v1h-3z M49,47h1v2h-1z M24,48h5v1h-5z M34,48h1v3h-1z M39,48h1v2h-1z M43,48h1v1h-1z M46,48h1v1h-1z M48,48h1v1h-1z M50,48h1v1h-1z M53,48h1v2h-1z M59,48h1v3h-1z M24,49h2v1h-2z M28,49h1v1h-1z M31,49h1v2h-1z M33,49h1v4h-1z M36,49h1v4h-1z M40,49h1v1h-1z M47,49h1v1h-1z M54,49h1v1h-1z M58,49h1v2h-1z M60,49h1v2h-1z M20,50h1v1h-1z M23,50h1v1h-1z M25,50h3v1h-3z M32,50h1v2h-1z M35,50h1v3h-1z M43,50h1v1h-1z M45,50h1v1h-1z M56,50h1v1h-1z M22,51h1v1h-1z M24,51h1v2h-1z M27,51h1v1h-1z M29,51h1v3h-1z M30,51h1v1h-1z M37,51h2v1h-2z M41,51h1v2h-1z M47,51h5v1h-5z M53,51h1v2h-1z M57,51h1v3h-1z M20,52h1v1h-1z M23,52h1v1h-1z M26,52h1v1h-1z M28,52h1v2h-1z M42,52h1v3h-1z M45,52h1v4h-1z M46,52h1v1h-1z M48,52h1v2h-1z M51,52h2v1h-2z M54,52h3v1h-3z M58,52h1v1h-1z M60,52h1v2h-1z M30,53h1v1h-1z M34,53h1v1h-1z M37,53h1v1h-1z M40,53h1v1h-1z M44,53h1v2h-1z M52,53h1v4h-1z M56,53h1v6h-1z M20,54h7v1h-7z M31,54h2v1h-2z M35,54h2v1h-2z M38,54h1v7h-1z M39,54h1v1h-1z M41,54h1v1h-1z M46,54h1v1h-1z M49,54h1v2h-1z M54,54h1v1h-1z M58,54h1v2h-1z M20,55h1v6h-1z M26,55h1v6h-1z M28,55h1v1h-1z M40,55h1v1h-1z M48,55h1v1h-1z M51,55h1v1h-1z M57,55h1v3h-1z M59,55h1v2h-1z M22,56h3v3h-3z M29,56h3v2h-3z M32,56h1v1h-1z M34,56h1v5h-1z M43,56h2v1h-2z M46,56h2v1h-2z M53,56h2v2h-2z M55,56h1v1h-1z M28,57h1v1h-1z M39,57h1v1h-1z M41,57h2v1h-2z M45,57h2v1h-2z M48,57h2v1h-2z M51,57h1v3h-1z M60,57h1v2h-1z M33,58h1v1h-1z M35,58h2v1h-2z M43,58h2v1h-2z M50,58h1v2h-1z M59,58h1v3h-1z M29,59h2v2h-2z M32,59h1v1h-1z M37,59h1v1h-1z M40,59h3v1h-3z M45,59h1v1h-1z M47,59h3v1h-3z M52,59h2v2h-2z M55,59h1v2h-1z M21,60h5v1h-5z M28,60h1v1h-1z M41,60h2v1h-2z M44,60h1v1h-1z M46,60h1v1h-1z M49,60h1v1h-1z M54,60h1v1h-1z M56,60h1v1h-1z" fill="#000000"/>
</svg>
