<?xml version="1.0" encoding="UTF-8"?>
<!DOCTYPE svg PUBLIC "-//W3C//DTD SVG 1.1//EN" "http://www.w3.org/Graphics/SVG/1.1/DTD/svg11.dtd">
<svg xmlns="http://www.w3.org/2000/svg" version="1.1" viewBox="0 0 73 73" stroke="none">
	<rect width="100%" height="100%" fill="#ffffff"/>
	<path d="M20,20h7v1h-7z M28,20h1v2h-1z M32,20h1v1h-1z M36,20h1v1h-1z M39,20h1v1h-1z M41,20h4v1h-4z M46,20h7v1h-7z M20,21h1v6h-1z M26,21h1v6h-1z M29,21h1v1h-1z M31,21h1v1h-1z M34,21h1v2h-1z M37,21h1v1h-1z M42,21h2v1h-2z M46,21h1v6h-1z M52,21h1v6h-1z M22,22h3v3h-3z M30,22h1v1h-1z M32,22h2v1h-2z M35,22h1v1h-1z M38,22h1v3h-1z M39,22h1v1h-1z M43,22h2v1h-2z M48,22h3v3h-3z M28,23h2v1h-2z M32,23h1v1h-1z M42,23h1v1h-1z M44,23h1v2h-1z M29,24h1v2h-1z M31,24h1v1h-1z M36,24h1v6h-1z M37,24h1v2h-1z M41,24h1v1h-1z M30,25h1v4h-1z M32,25h4v1h-4z M42,25h1v2h-1z M21,26h5v1h-5z M28,26h1v2h-1z M32,26h1v1h-1z M34,26h1v1h-1z M38,26h1v1h-1z M40,26h1v1h-1z M44,26h1v5h-1z M47,26h5v1h-5z M35,27h1v2h-1z M37,27h1v3h-1z M39,27h1v1h-1z M20,28h1v1h-1z M22,28h2v1h-2z M25,28h1v6h-1z M26,28h2v1h-2z M32,28h1v4h-1z M34,28h1v2h-1z M40,28h4v1h-4z M46,28h1v3h-1z M49,28h1v5h-1z M51,28h2v3h-2z M21,29h1v4h-1z M23,29h1v1h-1z M31,29h1v3h-1z M33,29h1v2h-1z M39,29h1v1h-1z M43,29h1v2h-1z M45,29h1v1h-1z M47,29h1v6h-1z M50,29h1v1h-1z M24,30h1v1h-1z M26,30h1v1h-1z M28,30h1v1h-1z M30,30h1v2h-1z M38,30h1v1h-1z M41,30h1v1h-1z M48,30h1v1h-1z M35,31h1v1h-1z M37,31h1v1h-1z M39,31h2v1h-2z M51,31h1v1h-1z M22,32h1v3h-1z M23,32h1v1h-1z M26,32h2v1h-2z M29,32h1v2h-1z M34,32h1v2h-1z M36,32h1v1h-1z M40,32h1v3h-1z M42,32h1v2h-1z M44,32h1v5h-1z M45,32h1v1h-1z M48,32h1v1h-1z M52,32h1v1h-1z M20,33h1v3h-1z M28,33h1v4h-1z M30,33h1v3h-1z M37,33h1v2h-1z M41,33h1v4h-1z M51,33h1v1h-1z M21,34h1v3h-1z M24,34h1v1h-1z M26,34h1v1h-1z M38,34h2v1h-2z M45,34h1v2h-1z M31,35h2v2h-2z M34,35h2v1h-2z M38,35h1v1h-1z M43,35h1v3h-1z M49,35h2v2h-2z M22,36h5v1h-5z M33,36h1v1h-1z M46,36h1v4h-1z M48,36h1v4h-1z M22,37h1v3h-1z M24,37h2v1h-2z M29,37h1v3h-1z M30,37h1v1h-1z M35,37h1v2h-1z M38,37h1v3h-1z M49,37h1v1h-1z M51,37h2v1h-2z M21,38h1v1h-1z M26,38h1v1h-1z M32,38h1v3h-1z M34,38h1v1h-1z M36,38h1v4h-1z M44,38h2v2h-2z M50,38h2v1h-2z M23,39h1v1h-1z M25,39h1v1h-1z M30,39h2v1h-2z M33,39h1v1h-1z M37,39h1v1h-1z M39,39h2v1h-2z M42,39h1v2h-1z M47,39h1v1h-1z M21,40h1v2h-1z M24,40h1v4h-1z M26,40h3v1h-3z M43,40h1v3h-1z M44,40h1v1h-1z M49,40h2v1h-2z M52,40h1v5h-1z M20,41h1v1h-1z M22,41h1v4h-1z M25,41h1v4h-1z M27,41h1v2h-1z M33,41h1v1h-1z M35,41h1v3h-1z M40,41h1v5h-1z M41,41h1v1h-1z M46,41h1v1h-1z M49,41h1v1h-1z M23,42h1v2h-1z M26,42h1v1h-1z M28,42h4v1h-4z M37,42h3v1h-3z M44,42h1v10h-1z M47,42h1v3h-1z M48,42h1v1h-1z M51,42h1v1h-1z M21,43h1v1h-1z M30,43h1v5h-1z M32,43h2v1h-2z M49,43h1v1h-1z M20,44h1v1h-1z M26,44h2v1h-2z M31,44h1v1h-1z M33,44h2v1h-2z M36,44h4v1h-4z M43,44h1v3h-1z M45,44h2v1h-2z M48,44h1v5h-1z M51,44h1v1h-1z M28,45h1v3h-1z M29,45h1v1h-1z M33,45h1v1h-1z M35,45h2v1h-2z M39,45h1v3h-1z M41,45h1v2h-1z M49,45h1v1h-1z M20,46h7v1h-7z M36,46h3v1h-3z M46,46h1v1h-1z M51,46h1v1h-1z M20,47h1v6h-1z M26,47h1v6h-1z M29,47h1v6h-1z M31,47h4v1h-4z M37,47h1v6h-1z M38,47h1v2h-1z M40,47h1v1h-1z M50,47h1v4h-1z M52,47h1v3h-1z M22,48h3v3h-3z M31,48h1v1h-1z M34,48h1v3h-1z M36,48h1v3h-1z M42,48h1v3h-1z M43,48h1v1h-1z M45,48h1v4h-1z M46,48h2v1h-2z M28,49h1v2h-1z M39,49h1v1h-1z M41,49h1v1h-1z M49,49h1v1h-1z M51,49h1v1h-1z M30,50h4v1h-4z M35,50h1v1h-1z M40,50h1v3h-1z M46,50h2v1h-2z M31,51h2v1h-2z M38,51h1v2h-1z M46,51h1v1h-1z M48,51h2v1h-2z M52,51h1v1h-1z M21,52h5v1h-5z M28,52h1v1h-1z M31,52h1v1h-1z M39,52h1v1h-1z M41,52h2v1h-2z M49,52h2v1h-2z" fill="#000000"/>
</svg>
